<svg xmlns:dc="http://purl.org/dc/elements/1.1/" xmlns:cc="http://creativecommons.org/ns#" xmlns:rdf="http://www.w3.org/1999/02/22-rdf-syntax-ns#" xmlns:svg="http://www.w3.org/2000/svg" xmlns="http://www.w3.org/2000/svg" height="1544.1372549606258" width="1346.568627480313" xml:space="preserve" version="1.1" style=""><rect id="backgroundrect" width="100%" height="100%" x="0" y="0" fill="none" stroke="none" class="" style=""/><metadata id="metadata8"><rdf:RDF><cc:Work rdf:about=""><dc:format>image/svg+xml</dc:format><dc:type rdf:resource="http://purl.org/dc/dcmitype/StillImage"/></cc:Work></rdf:RDF></metadata><defs id="defs6"><clipPath id="clipPath34" clipPathUnits="userSpaceOnUse"><path id="path32" d="M 0,1000 H 1000 V 0 H 0 Z"/></clipPath></defs><g class="currentLayer" style=""><title>Layer 1</title><g class="" fill-opacity="1" fill="#ffc107"><g id="g44" stroke-width="0" fill="#ffc107" fill-opacity="1" class=""><path id="path46" style="fill-rule: nonzero; stroke: none;" d="M709.1093084357673,1434.4660712223056 V1141.3701443332216 H634.6058708726088 V1434.4660712223056 l-517.6913335078079,-298.8957856688069 l399.11150745016835,-230.82041916019895 V818.6911303204304 L79.17103624686631,1071.3403396362605 v-604.1752233424293 l257.46550342284297,151.01207794293927 v-86.38236057808352 l-215.6989055145974,-126.49910806758945 l513.6682367174968,-296.5669583469707 v293.1022724676176 H709.1093084357673 v-293.1022724676176 L1226.800641943575,407.6182073344 L1007.0786396386666,534.6884174700149 v86.07142722993646 l257.46550342284297,-148.89900029124587 V1076.0360677511349 L827.6891344934068,819.81429772088 V906.1903127204299 L1222.7521628391296,1137.9054584538683 zM671.8607624434547,1.190247834975156 L4.667598683707643,386.39224713946226 V1156.7962457484366 L671.8607624434547,1541.9982450529237 L1339.0475806246682,1156.7962457484366 v-770.4039986089741 z" stroke-width="0" fill="#ffc107" fill-opacity="1"/></g><g id="g48" stroke-width="0" fill="#ffc107" fill-opacity="1" class=""><path id="path50" style="fill-rule: nonzero; stroke: none;" d="M827.6923072826736,724.5081900206837 L895.7740193698154,685.1275296410772 H827.6923072826736 z" stroke-width="0" fill="#ffc107" fill-opacity="1"/></g><g id="g52" stroke-width="0" fill="#ffc107" fill-opacity="1" class=""><path id="path54" style="fill-rule: nonzero; stroke: none;" d="M516.0241478030271,723.3863657883467 V685.1288728091897 H450.79160047747797 z" stroke-width="0" fill="#ffc107" fill-opacity="1"/></g><g id="g56" stroke-width="0" fill="#ffc107" fill-opacity="1" class=""><path id="path58" style="fill-rule: nonzero; stroke: none;" d="m417.83518924269487,609.3735467935302 l60.79698793055302,-57.58612519254448 c5.577763531046458,4.073861418580011 12.424642768815659,6.497872418420446 19.842624074610097,6.497872418420446 c6.053681921067487,0 11.720283551584535,-1.6181225260714989 16.62541575806794,-4.410177080861537 L562.0130791049322,609.3735467935302 zm437.7878086125439,-55.66341489685953 c2.1701878584958925,0.6726313245630546 4.4672872876640595,1.034329300979037 6.865915973370043,1.034329300979037 c2.6778341411849915,0 5.241447868764931,-0.4759183900210292 7.627385397403688,-1.3135347564580404 L907.3013894329888,609.3735467935302 H796.5393161287614 zM713.8246999431067,965.6777814559405 c2.4176654213068285,-3.1854804238740893 3.877148484037984,-7.151467007382659 3.877148484037984,-11.45376925317276 c0,-4.632272329538011 -1.6498504187395677,-8.858427632924752 -4.397485923794309,-12.13909173480304 l38.61919095557308,-57.998587797229376 v170.2328353212552 zm-23.960904542925395,5.190683240496021 c2.658797405584147,1.4341007485967014 5.704675101718733,2.2590259579664846 8.940920153861729,2.2590259579664846 c0.9074177303067618,0 1.7957987250126834,-0.08883809947059207 2.6778341411849915,-0.21574967014286683 l39.85023319109414,92.68986564049557 H599.2806618328455 zm-98.070916237,-133.20003899908554 l91.16692679242828,106.22498465269362 c-1.929055874218572,2.976076332264834 -3.0712600102690413,6.5105635754876765 -3.0712600102690413,10.330601852723133 c0,1.9671293454202536 0.2982421910798451,3.8581117484371426 0.8566531020378532,5.647564894916211 L591.7928791631813,1052.9167951360619 zm139.9326978232497,-328.4027258501107 c-5.806204358256552,-3.153752531206021 -12.469061818550955,-4.943205677685086 -19.53169072646302,-4.943205677685086 c-7.0499377508448395,0 -13.700104054072014,1.7894531464790697 -19.487271676727726,4.930514520617859 l-18.579853946420968,-31.670782461266057 H755.3755481812092 zM682.344284837849,708.9991297712658 c2.918966125462311,-4.200772989252283 4.644963486605243,-9.30261813027771 4.644963486605243,-14.797889140387188 c0,-2.601687198781627 -0.39342586908405075,-5.114536298092657 -1.1104762433824011,-7.494128248197801 l66.04478137785156,-38.638227691173924 v160.45429880095648 zm69.5792686210744,138.70165558772865 v10.831902556878614 l-51.100943931191274,76.88302951326379 c-0.6726313245630546,-0.0761469424033647 -1.3452626491261093,-0.11422041360504706 -2.017893973689164,-0.11422041360504706 c-1.4150640129958598,0 -2.804745711857265,0.17133062040757047 -4.124626046848917,0.46322723295380186 l-97.41097606950419,-113.4716353380805 zm-160.13067429574215,-40.96070943447654 l59.521526645296674,-88.40660013030632 c2.988767489332063,1.199314342852994 6.244049277075899,1.878291245949662 9.664316106693693,1.878291245949662 c3.6994722850967974,0 7.2085772141851825,-0.7805061596344881 10.37502090245843,-2.1701878584958925 l80.56981064129337,115.21032385629064 v0.05711020680252354 l-160.13067429574215,-26.29607744329524 zm45.23762936613218,-122.67906979035398 c-1.3198803349916535,3.1220246385379524 -2.0432762878236175,6.548637046689359 -2.0432762878236175,10.14023449671472 c0,5.787167622655711 1.9036735600841168,11.104762433824005 5.1018451410254295,15.426101415214946 l-48.296198219334,71.72407416543585 v-129.74804427679967 zm44.723637504909476,-111.42201347172326 c7.500473826731416,8.344435771702038 18.338721962143644,13.623957111668652 30.439740225745,13.623957111668652 c4.4609417091304415,0 8.750552797853315,-0.7360871098991918 12.773649588164417,-2.0623130234244593 l26.95601761079107,32.19111990102239 v15.248425216273763 l-73.71658582499056,43.12455171443882 c-4.594198858336332,-4.073861418580011 -10.609807308202136,-6.561328203756583 -17.228245718761244,-6.561328203756583 c-5.5904546881136845,0 -10.768446771542479,1.7894531464790697 -15.013638810530056,4.803602949945585 l-54.17220394146031,-38.853977361316794 v-10.559042679933226 zm130.28107287362323,-95.05676643353348 h103.69944439631536 l-38.568426327304174,36.34747384053937 c-3.9913688976430284,-3.2997008374791346 -9.093214038668457,-5.273175761433 -14.67732314824853,-5.273175761433 c-3.7565824918993207,0 -7.278378578054933,0.9074177303067618 -10.41309437366011,2.500157942243804 zm-22.069922139908506,0 l52.027398397098864,43.619506840060694 c-1.630813683138727,3.147406952672406 -2.5509225705127165,6.719967667096927 -2.5509225705127165,10.49558689459709 c0,5.089153983958202 1.668887154340409,9.765845363231511 4.4609417091304415,13.579538061933356 L775.8590756877145,609.3735467935302 h-11.352239996634939 l-26.867179511320476,-32.007098123547586 c9.448566436550825,-7.506819405265028 15.521285093219152,-19.074809072042832 15.521285093219152,-32.07055390888373 c0,-10.44482226632818 -3.9406042693741212,-19.937807752614297 -10.362329745391198,-27.178112859467554 l30.268409605337432,-40.53555567272442 zm-259.4707062394649,36.59495140335031 l90.27854579772234,-36.59495140335031 h36.90588475149738 l23.840338550786736,40.6180481936614 c-6.383652004815399,7.2212683712524095 -10.29252838152145,16.69521712193769 -10.29252838152145,27.095620338530576 c0,5.4191240677061145 1.0787483507143327,10.584424994067682 2.988767489332063,15.324572158677126 L588.1314803492862,609.3735467935302 h-7.551238455000324 l-54.9082910513595,-64.95334187007002 c4.061170261512782,-5.565072373979231 6.491526839886836,-12.399260454681205 6.491526839886836,-19.810896181942024 c0,-3.636016499760662 -0.6028299606933034,-7.138775850315432 -1.668887154340409,-10.43213110926095 M447.4563498376037,477.58222622890685 h135.56693979212346 l-59.794386522242064,24.246455576938015 c-6.155211177605306,-6.688239774428858 -14.956528603727532,-10.901703920748366 -24.75410185962711,-10.901703920748366 c-8.261943250765064,0 -15.819527284298996,2.988767489332063 -21.663805113757228,7.912936431416306 zm-24.18934537013549,0 l44.863240232648984,32.48936209210223 C466.01716704842374,514.4690742448033 464.7924703914363,519.393243186888 464.7924703914363,524.6093087415184 C464.7924703914363,530.6439539269848 466.40424733897424,536.3042099789684 469.183610736697,541.2029966069184 L412.3970284393878,594.9944658363613 V477.58222622890685 zM924.3265766386744,609.3735467935302 L881.4304657514458,544.819976371078 c2.5763048846471683,-3.7312001777648685 4.111934889781692,-8.24290651516422 4.111934889781692,-13.122656407513166 c0,-1.9100191386177303 -0.2665142984117764,-3.7438913348320932 -0.7043592172311235,-5.507962167176708 l46.47501718018686,-43.79718303900188 V609.3735467935302 zm45.485106928943125,-170.2899455280577 H373.89205789741976 V647.8721717569648 h179.3831595667262 v456.2407509882927 h237.1659976938127 v-456.2407509882927 h179.37046840965897 z" stroke-width="0" fill="#ffc107" fill-opacity="1"/></g></g></g></svg>